<mxfile host="app.diagrams.net" modified="2022-09-12T14:33:21.028Z" agent="5.0 (Windows NT 10.0; Win64; x64) AppleWebKit/537.36 (KHTML, like Gecko) Chrome/102.0.5005.167 YaBrowser/22.7.5.1027 Yowser/2.5 Safari/537.36" etag="DatToIFddOc4yK_jTcRk" version="20.3.0" type="github">
  <diagram id="dp3owo3YxD2gHgal834z" name="Страница 1">
    <mxGraphModel dx="1422" dy="789" grid="1" gridSize="10" guides="1" tooltips="1" connect="1" arrows="1" fold="1" page="1" pageScale="1" pageWidth="827" pageHeight="1169" math="0" shadow="0">
      <root>
        <mxCell id="0" />
        <mxCell id="1" parent="0" />
        <mxCell id="GLDMUwD_vZjXWO6ywwR--3" value="String" style="edgeStyle=orthogonalEdgeStyle;rounded=0;orthogonalLoop=1;jettySize=auto;html=1;exitX=1;exitY=0.5;exitDx=0;exitDy=0;" edge="1" parent="1" source="GLDMUwD_vZjXWO6ywwR--1" target="GLDMUwD_vZjXWO6ywwR--2">
          <mxGeometry relative="1" as="geometry" />
        </mxCell>
        <mxCell id="GLDMUwD_vZjXWO6ywwR--1" value="Input" style="rounded=0;whiteSpace=wrap;html=1;" vertex="1" parent="1">
          <mxGeometry x="40" y="240" width="120" height="80" as="geometry" />
        </mxCell>
        <mxCell id="GLDMUwD_vZjXWO6ywwR--5" style="edgeStyle=orthogonalEdgeStyle;rounded=0;orthogonalLoop=1;jettySize=auto;html=1;exitX=1;exitY=0.5;exitDx=0;exitDy=0;entryX=0;entryY=0.5;entryDx=0;entryDy=0;entryPerimeter=0;" edge="1" parent="1" source="GLDMUwD_vZjXWO6ywwR--2" target="GLDMUwD_vZjXWO6ywwR--4">
          <mxGeometry relative="1" as="geometry" />
        </mxCell>
        <mxCell id="GLDMUwD_vZjXWO6ywwR--6" value="Array Word" style="edgeLabel;html=1;align=center;verticalAlign=middle;resizable=0;points=[];" vertex="1" connectable="0" parent="GLDMUwD_vZjXWO6ywwR--5">
          <mxGeometry x="-0.2222" y="-1" relative="1" as="geometry">
            <mxPoint as="offset" />
          </mxGeometry>
        </mxCell>
        <mxCell id="GLDMUwD_vZjXWO6ywwR--2" value="Parser" style="rhombus;whiteSpace=wrap;html=1;" vertex="1" parent="1">
          <mxGeometry x="240" y="240" width="80" height="80" as="geometry" />
        </mxCell>
        <mxCell id="GLDMUwD_vZjXWO6ywwR--8" value="Word" style="edgeStyle=orthogonalEdgeStyle;rounded=0;orthogonalLoop=1;jettySize=auto;html=1;exitX=1;exitY=0.5;exitDx=0;exitDy=0;exitPerimeter=0;entryX=0;entryY=0.5;entryDx=0;entryDy=0;" edge="1" parent="1" source="GLDMUwD_vZjXWO6ywwR--4" target="GLDMUwD_vZjXWO6ywwR--7">
          <mxGeometry relative="1" as="geometry" />
        </mxCell>
        <mxCell id="GLDMUwD_vZjXWO6ywwR--39" style="edgeStyle=orthogonalEdgeStyle;rounded=0;orthogonalLoop=1;jettySize=auto;html=1;exitX=0.855;exitY=1;exitDx=0;exitDy=-4.35;exitPerimeter=0;entryX=0;entryY=0.5;entryDx=0;entryDy=0;entryPerimeter=0;" edge="1" parent="1" source="GLDMUwD_vZjXWO6ywwR--4" target="GLDMUwD_vZjXWO6ywwR--27">
          <mxGeometry relative="1" as="geometry">
            <Array as="points">
              <mxPoint x="460" y="316" />
              <mxPoint x="460" y="370" />
            </Array>
          </mxGeometry>
        </mxCell>
        <mxCell id="GLDMUwD_vZjXWO6ywwR--40" value="Array Word" style="edgeLabel;html=1;align=center;verticalAlign=middle;resizable=0;points=[];" vertex="1" connectable="0" parent="GLDMUwD_vZjXWO6ywwR--39">
          <mxGeometry x="0.1645" y="-2" relative="1" as="geometry">
            <mxPoint as="offset" />
          </mxGeometry>
        </mxCell>
        <mxCell id="GLDMUwD_vZjXWO6ywwR--4" value="Stack&lt;br&gt;" style="shape=cylinder3;whiteSpace=wrap;html=1;boundedLbl=1;backgroundOutline=1;size=15;" vertex="1" parent="1">
          <mxGeometry x="410" y="240" width="60" height="80" as="geometry" />
        </mxCell>
        <mxCell id="GLDMUwD_vZjXWO6ywwR--10" value="Command" style="edgeStyle=orthogonalEdgeStyle;rounded=0;orthogonalLoop=1;jettySize=auto;html=1;exitX=0.5;exitY=1;exitDx=0;exitDy=0;entryX=0.5;entryY=0;entryDx=0;entryDy=0;strokeColor=#006600;" edge="1" parent="1" source="GLDMUwD_vZjXWO6ywwR--7">
          <mxGeometry relative="1" as="geometry">
            <mxPoint x="830" y="370" as="targetPoint" />
          </mxGeometry>
        </mxCell>
        <mxCell id="GLDMUwD_vZjXWO6ywwR--26" value="Word" style="edgeStyle=orthogonalEdgeStyle;rounded=0;orthogonalLoop=1;jettySize=auto;html=1;exitX=0.5;exitY=0;exitDx=0;exitDy=0;entryX=0.5;entryY=1;entryDx=0;entryDy=0;strokeColor=#660000;" edge="1" parent="1" source="GLDMUwD_vZjXWO6ywwR--7" target="GLDMUwD_vZjXWO6ywwR--25">
          <mxGeometry relative="1" as="geometry" />
        </mxCell>
        <mxCell id="GLDMUwD_vZjXWO6ywwR--7" value="Vocab&lt;br&gt;Command&lt;br&gt;Factory" style="rhombus;whiteSpace=wrap;html=1;" vertex="1" parent="1">
          <mxGeometry x="790" y="240" width="80" height="80" as="geometry" />
        </mxCell>
        <mxCell id="GLDMUwD_vZjXWO6ywwR--11" value="Command" style="rounded=0;whiteSpace=wrap;html=1;" vertex="1" parent="1">
          <mxGeometry x="770" y="370" width="120" height="20" as="geometry" />
        </mxCell>
        <mxCell id="GLDMUwD_vZjXWO6ywwR--12" style="edgeStyle=orthogonalEdgeStyle;rounded=0;orthogonalLoop=1;jettySize=auto;html=1;exitX=0.5;exitY=1;exitDx=0;exitDy=0;" edge="1" parent="1" source="GLDMUwD_vZjXWO6ywwR--11" target="GLDMUwD_vZjXWO6ywwR--11">
          <mxGeometry relative="1" as="geometry" />
        </mxCell>
        <mxCell id="GLDMUwD_vZjXWO6ywwR--15" value="Task&lt;br&gt;Param Count&lt;br&gt;Array Word" style="rounded=0;whiteSpace=wrap;html=1;" vertex="1" parent="1">
          <mxGeometry x="770" y="390" width="120" height="60" as="geometry" />
        </mxCell>
        <mxCell id="GLDMUwD_vZjXWO6ywwR--17" style="edgeStyle=orthogonalEdgeStyle;rounded=0;orthogonalLoop=1;jettySize=auto;html=1;exitX=0;exitY=0.5;exitDx=0;exitDy=0;entryX=0.145;entryY=1;entryDx=0;entryDy=-4.35;entryPerimeter=0;" edge="1" parent="1" source="GLDMUwD_vZjXWO6ywwR--16" target="GLDMUwD_vZjXWO6ywwR--4">
          <mxGeometry relative="1" as="geometry" />
        </mxCell>
        <mxCell id="GLDMUwD_vZjXWO6ywwR--21" value="Param Count" style="edgeLabel;html=1;align=center;verticalAlign=middle;resizable=0;points=[];" vertex="1" connectable="0" parent="GLDMUwD_vZjXWO6ywwR--17">
          <mxGeometry x="-0.4289" y="-2" relative="1" as="geometry">
            <mxPoint as="offset" />
          </mxGeometry>
        </mxCell>
        <mxCell id="GLDMUwD_vZjXWO6ywwR--16" value="Word Reader" style="rounded=0;whiteSpace=wrap;html=1;" vertex="1" parent="1">
          <mxGeometry x="770" y="450" width="120" height="20" as="geometry" />
        </mxCell>
        <mxCell id="GLDMUwD_vZjXWO6ywwR--44" style="edgeStyle=orthogonalEdgeStyle;rounded=0;orthogonalLoop=1;jettySize=auto;html=1;exitX=0;exitY=1;exitDx=0;exitDy=0;entryX=0.855;entryY=0;entryDx=0;entryDy=4.35;entryPerimeter=0;strokeColor=#000000;" edge="1" parent="1" source="GLDMUwD_vZjXWO6ywwR--25" target="GLDMUwD_vZjXWO6ywwR--27">
          <mxGeometry relative="1" as="geometry" />
        </mxCell>
        <mxCell id="GLDMUwD_vZjXWO6ywwR--45" value="Word" style="edgeLabel;html=1;align=center;verticalAlign=middle;resizable=0;points=[];" vertex="1" connectable="0" parent="GLDMUwD_vZjXWO6ywwR--44">
          <mxGeometry x="-0.2182" y="-2" relative="1" as="geometry">
            <mxPoint as="offset" />
          </mxGeometry>
        </mxCell>
        <mxCell id="GLDMUwD_vZjXWO6ywwR--51" style="edgeStyle=orthogonalEdgeStyle;rounded=0;orthogonalLoop=1;jettySize=auto;html=1;exitX=1;exitY=0.5;exitDx=0;exitDy=0;entryX=0.5;entryY=0;entryDx=0;entryDy=0;entryPerimeter=0;strokeColor=#000000;startArrow=none;startFill=0;" edge="1" parent="1" source="GLDMUwD_vZjXWO6ywwR--25" target="GLDMUwD_vZjXWO6ywwR--4">
          <mxGeometry relative="1" as="geometry">
            <Array as="points">
              <mxPoint x="890" y="160" />
              <mxPoint x="890" y="40" />
              <mxPoint x="440" y="40" />
            </Array>
          </mxGeometry>
        </mxCell>
        <mxCell id="GLDMUwD_vZjXWO6ywwR--54" value="Iteration" style="edgeLabel;html=1;align=center;verticalAlign=middle;resizable=0;points=[];" vertex="1" connectable="0" parent="GLDMUwD_vZjXWO6ywwR--51">
          <mxGeometry x="-0.1848" relative="1" as="geometry">
            <mxPoint x="-50" as="offset" />
          </mxGeometry>
        </mxCell>
        <mxCell id="GLDMUwD_vZjXWO6ywwR--25" value="Cache Controller" style="rhombus;whiteSpace=wrap;html=1;" vertex="1" parent="1">
          <mxGeometry x="790" y="120" width="80" height="80" as="geometry" />
        </mxCell>
        <mxCell id="GLDMUwD_vZjXWO6ywwR--43" value="Array Word" style="edgeStyle=orthogonalEdgeStyle;rounded=0;orthogonalLoop=1;jettySize=auto;html=1;exitX=1;exitY=0.5;exitDx=0;exitDy=0;exitPerimeter=0;entryX=0;entryY=0.5;entryDx=0;entryDy=0;" edge="1" parent="1" source="GLDMUwD_vZjXWO6ywwR--27" target="GLDMUwD_vZjXWO6ywwR--15">
          <mxGeometry relative="1" as="geometry" />
        </mxCell>
        <mxCell id="GLDMUwD_vZjXWO6ywwR--48" style="edgeStyle=orthogonalEdgeStyle;rounded=0;orthogonalLoop=1;jettySize=auto;html=1;exitX=0.145;exitY=0;exitDx=0;exitDy=4.35;exitPerimeter=0;entryX=0.145;entryY=1;entryDx=0;entryDy=-4.35;entryPerimeter=0;strokeColor=#000000;" edge="1" parent="1" source="GLDMUwD_vZjXWO6ywwR--27" target="GLDMUwD_vZjXWO6ywwR--47">
          <mxGeometry relative="1" as="geometry" />
        </mxCell>
        <mxCell id="GLDMUwD_vZjXWO6ywwR--50" value="Word" style="edgeLabel;html=1;align=center;verticalAlign=middle;resizable=0;points=[];" vertex="1" connectable="0" parent="GLDMUwD_vZjXWO6ywwR--48">
          <mxGeometry x="-0.1119" relative="1" as="geometry">
            <mxPoint as="offset" />
          </mxGeometry>
        </mxCell>
        <mxCell id="GLDMUwD_vZjXWO6ywwR--27" value="Variable Storage" style="shape=cylinder3;whiteSpace=wrap;html=1;boundedLbl=1;backgroundOutline=1;size=15;" vertex="1" parent="1">
          <mxGeometry x="560" y="330" width="60" height="80" as="geometry" />
        </mxCell>
        <mxCell id="GLDMUwD_vZjXWO6ywwR--49" value="Word" style="edgeStyle=orthogonalEdgeStyle;rounded=0;orthogonalLoop=1;jettySize=auto;html=1;exitX=1;exitY=0.5;exitDx=0;exitDy=0;exitPerimeter=0;entryX=0;entryY=0;entryDx=0;entryDy=0;strokeColor=#000000;" edge="1" parent="1" source="GLDMUwD_vZjXWO6ywwR--47" target="GLDMUwD_vZjXWO6ywwR--25">
          <mxGeometry relative="1" as="geometry" />
        </mxCell>
        <mxCell id="GLDMUwD_vZjXWO6ywwR--47" value="Cache" style="shape=cylinder3;whiteSpace=wrap;html=1;boundedLbl=1;backgroundOutline=1;size=15;" vertex="1" parent="1">
          <mxGeometry x="560" y="80" width="60" height="80" as="geometry" />
        </mxCell>
        <mxCell id="GLDMUwD_vZjXWO6ywwR--57" style="edgeStyle=orthogonalEdgeStyle;rounded=0;orthogonalLoop=1;jettySize=auto;html=1;exitX=0.5;exitY=1;exitDx=0;exitDy=0;entryX=0.5;entryY=0;entryDx=0;entryDy=0;strokeColor=#000000;startArrow=none;startFill=0;" edge="1" parent="1" source="GLDMUwD_vZjXWO6ywwR--55" target="GLDMUwD_vZjXWO6ywwR--56">
          <mxGeometry relative="1" as="geometry" />
        </mxCell>
        <mxCell id="GLDMUwD_vZjXWO6ywwR--55" value="Execute" style="rounded=0;whiteSpace=wrap;html=1;" vertex="1" parent="1">
          <mxGeometry x="770" y="470" width="120" height="20" as="geometry" />
        </mxCell>
        <mxCell id="GLDMUwD_vZjXWO6ywwR--58" style="edgeStyle=orthogonalEdgeStyle;rounded=0;orthogonalLoop=1;jettySize=auto;html=1;exitX=0;exitY=0.5;exitDx=0;exitDy=0;entryX=0.5;entryY=1;entryDx=0;entryDy=0;entryPerimeter=0;strokeColor=#000000;startArrow=none;startFill=0;" edge="1" parent="1" source="GLDMUwD_vZjXWO6ywwR--56" target="GLDMUwD_vZjXWO6ywwR--27">
          <mxGeometry relative="1" as="geometry" />
        </mxCell>
        <mxCell id="GLDMUwD_vZjXWO6ywwR--61" value="Key -&amp;gt; Value" style="edgeLabel;html=1;align=center;verticalAlign=middle;resizable=0;points=[];" vertex="1" connectable="0" parent="GLDMUwD_vZjXWO6ywwR--58">
          <mxGeometry x="-0.4027" y="-3" relative="1" as="geometry">
            <mxPoint as="offset" />
          </mxGeometry>
        </mxCell>
        <mxCell id="GLDMUwD_vZjXWO6ywwR--59" style="edgeStyle=orthogonalEdgeStyle;rounded=0;orthogonalLoop=1;jettySize=auto;html=1;exitX=0;exitY=1;exitDx=0;exitDy=0;entryX=0.5;entryY=1;entryDx=0;entryDy=0;entryPerimeter=0;strokeColor=#000000;startArrow=none;startFill=0;" edge="1" parent="1" source="GLDMUwD_vZjXWO6ywwR--56" target="GLDMUwD_vZjXWO6ywwR--4">
          <mxGeometry relative="1" as="geometry" />
        </mxCell>
        <mxCell id="GLDMUwD_vZjXWO6ywwR--60" value="Word" style="edgeLabel;html=1;align=center;verticalAlign=middle;resizable=0;points=[];" vertex="1" connectable="0" parent="GLDMUwD_vZjXWO6ywwR--59">
          <mxGeometry x="-0.3893" y="-1" relative="1" as="geometry">
            <mxPoint as="offset" />
          </mxGeometry>
        </mxCell>
        <mxCell id="GLDMUwD_vZjXWO6ywwR--63" style="edgeStyle=orthogonalEdgeStyle;rounded=0;orthogonalLoop=1;jettySize=auto;html=1;exitX=0.5;exitY=1;exitDx=0;exitDy=0;entryX=1;entryY=0.5;entryDx=0;entryDy=0;strokeColor=#000000;startArrow=none;startFill=0;" edge="1" parent="1" source="GLDMUwD_vZjXWO6ywwR--56" target="GLDMUwD_vZjXWO6ywwR--62">
          <mxGeometry relative="1" as="geometry">
            <Array as="points">
              <mxPoint x="830" y="640" />
            </Array>
          </mxGeometry>
        </mxCell>
        <mxCell id="GLDMUwD_vZjXWO6ywwR--56" value="Result&lt;br&gt;Saver" style="rhombus;whiteSpace=wrap;html=1;" vertex="1" parent="1">
          <mxGeometry x="790" y="545" width="80" height="80" as="geometry" />
        </mxCell>
        <mxCell id="GLDMUwD_vZjXWO6ywwR--62" value="Output&lt;br&gt;UI" style="rounded=0;whiteSpace=wrap;html=1;" vertex="1" parent="1">
          <mxGeometry x="40" y="600" width="120" height="80" as="geometry" />
        </mxCell>
      </root>
    </mxGraphModel>
  </diagram>
</mxfile>
